<svg xmlns="http://www.w3.org/2000/svg" width="1180" height="855" viewBox="0 0 1180 855" role="img" aria-label="评测材料与实验安排">
<defs><marker id="arrow" markerWidth="9" markerHeight="9" refX="8" refY="4.5" orient="auto"><path d="M0,0 L9,4.5 L0,9" fill="#71839b"/></marker></defs>
<rect width="1180" height="855" fill="white"/>
<g font-family="Noto Sans CJK SC, Noto Sans CJK JP, sans-serif">
<text x="30" y="44" font-size="32" font-weight="700" fill="#203d63" text-anchor="start">评测材料与实验安排</text>
<text x="30" y="84" font-size="24" font-weight="700" fill="#203d63" text-anchor="start">材料来源</text>
<text x="330" y="84" font-size="24" font-weight="700" fill="#203d63" text-anchor="start">材料构造与重复安排</text>
<text x="920" y="84" font-size="24" font-weight="700" fill="#203d63" text-anchor="start">完整评分次数</text>
<rect x="30" y="112" width="225" height="108" rx="8" fill="#ffffff" stroke="#c5d0de" stroke-width="1.5"/>
<text x="142.5" y="149" font-size="25" font-weight="700" fill="#203d63" text-anchor="middle">实际应用任务</text>
<text x="142.5" y="189" font-size="22" font-weight="400" fill="#536174" text-anchor="middle">检查应用表现</text>
<rect x="335" y="112" width="490" height="108" rx="8" fill="#eaf0f8" stroke="#c5d0de" stroke-width="1.5"/>
<text x="580.0" y="149" font-size="25" font-weight="700" fill="#203d63" text-anchor="middle">48项任务各实际运行一次</text>
<text x="580.0" y="189" font-size="22" font-weight="400" fill="#536174" text-anchor="middle">形成48份真实决策记录</text>
<rect x="905" y="112" width="245" height="108" rx="8" fill="#eaf0f8" stroke="#c5d0de" stroke-width="1.5"/>
<text x="1027.5" y="149" font-size="25" font-weight="700" fill="#203d63" text-anchor="middle">48 × 1 = 48次</text>
<text x="1027.5" y="189" font-size="22" font-weight="400" fill="#536174" text-anchor="middle">每份材料保持不变</text>
<polyline points="255,166 330,166" fill="none" stroke="#71839b" stroke-width="2" marker-end="url(#arrow)"/>
<polyline points="825,166 900,166" fill="none" stroke="#71839b" stroke-width="2" marker-end="url(#arrow)"/>
<rect x="30" y="238" width="225" height="108" rx="8" fill="#ffffff" stroke="#c5d0de" stroke-width="1.5"/>
<text x="142.5" y="275" font-size="25" font-weight="700" fill="#203d63" text-anchor="middle">三种质量对照</text>
<text x="142.5" y="315" font-size="22" font-weight="400" fill="#536174" text-anchor="middle">验证评测方法</text>
<rect x="335" y="238" width="490" height="108" rx="8" fill="#eaf0f8" stroke="#c5d0de" stroke-width="1.5"/>
<text x="580.0" y="275" font-size="25" font-weight="700" fill="#203d63" text-anchor="middle">8个情境，各编写3种质量版本</text>
<text x="580.0" y="315" font-size="22" font-weight="400" fill="#536174" text-anchor="middle">24份固定记录，每份评分3次</text>
<rect x="905" y="238" width="245" height="108" rx="8" fill="#eaf0f8" stroke="#c5d0de" stroke-width="1.5"/>
<text x="1027.5" y="275" font-size="25" font-weight="700" fill="#203d63" text-anchor="middle">24 × 3 = 72次</text>
<text x="1027.5" y="315" font-size="22" font-weight="400" fill="#536174" text-anchor="middle">每份材料保持不变</text>
<polyline points="255,292 330,292" fill="none" stroke="#71839b" stroke-width="2" marker-end="url(#arrow)"/>
<polyline points="825,292 900,292" fill="none" stroke="#71839b" stroke-width="2" marker-end="url(#arrow)"/>
<rect x="30" y="364" width="225" height="108" rx="8" fill="#ffffff" stroke="#c5d0de" stroke-width="1.5"/>
<text x="142.5" y="401" font-size="25" font-weight="700" fill="#203d63" text-anchor="middle">评分操纵</text>
<text x="142.5" y="441" font-size="22" font-weight="400" fill="#536174" text-anchor="middle">验证评测方法</text>
<rect x="335" y="364" width="490" height="108" rx="8" fill="#eaf0f8" stroke="#c5d0de" stroke-width="1.5"/>
<text x="580.0" y="401" font-size="25" font-weight="700" fill="#203d63" text-anchor="middle">8份严重错误记录追加评分指令</text>
<text x="580.0" y="441" font-size="22" font-weight="400" fill="#536174" text-anchor="middle">保留实际错误，每份评分1次</text>
<rect x="905" y="364" width="245" height="108" rx="8" fill="#eaf0f8" stroke="#c5d0de" stroke-width="1.5"/>
<text x="1027.5" y="401" font-size="25" font-weight="700" fill="#203d63" text-anchor="middle">8 × 1 = 8次</text>
<text x="1027.5" y="441" font-size="22" font-weight="400" fill="#536174" text-anchor="middle">每份材料保持不变</text>
<polyline points="255,418 330,418" fill="none" stroke="#71839b" stroke-width="2" marker-end="url(#arrow)"/>
<polyline points="825,418 900,418" fill="none" stroke="#71839b" stroke-width="2" marker-end="url(#arrow)"/>
<rect x="30" y="490" width="225" height="108" rx="8" fill="#ffffff" stroke="#c5d0de" stroke-width="1.5"/>
<text x="142.5" y="527" font-size="25" font-weight="700" fill="#203d63" text-anchor="middle">正常与严重对照</text>
<text x="142.5" y="567" font-size="22" font-weight="400" fill="#536174" text-anchor="middle">验证评测方法</text>
<rect x="335" y="490" width="490" height="108" rx="8" fill="#eaf0f8" stroke="#c5d0de" stroke-width="1.5"/>
<text x="580.0" y="527" font-size="25" font-weight="700" fill="#203d63" text-anchor="middle">12个情境，各编写正常 / 严重版本</text>
<text x="580.0" y="567" font-size="22" font-weight="400" fill="#536174" text-anchor="middle">24份固定记录，每份评分3次</text>
<rect x="905" y="490" width="245" height="108" rx="8" fill="#eaf0f8" stroke="#c5d0de" stroke-width="1.5"/>
<text x="1027.5" y="527" font-size="25" font-weight="700" fill="#203d63" text-anchor="middle">24 × 3 = 72次</text>
<text x="1027.5" y="567" font-size="22" font-weight="400" fill="#536174" text-anchor="middle">每份材料保持不变</text>
<polyline points="255,544 330,544" fill="none" stroke="#71839b" stroke-width="2" marker-end="url(#arrow)"/>
<polyline points="825,544 900,544" fill="none" stroke="#71839b" stroke-width="2" marker-end="url(#arrow)"/>
<rect x="30" y="616" width="225" height="108" rx="8" fill="#ffffff" stroke="#c5d0de" stroke-width="1.5"/>
<text x="142.5" y="653" font-size="25" font-weight="700" fill="#203d63" text-anchor="middle">条件与工作量</text>
<text x="142.5" y="693" font-size="22" font-weight="400" fill="#536174" text-anchor="middle">验证评测方法</text>
<rect x="335" y="616" width="490" height="108" rx="8" fill="#eaf0f8" stroke="#c5d0de" stroke-width="1.5"/>
<text x="580.0" y="653" font-size="25" font-weight="700" fill="#203d63" text-anchor="middle">6个情境，各编写正确 / 缺陷版本</text>
<text x="580.0" y="693" font-size="22" font-weight="400" fill="#536174" text-anchor="middle">12份固定记录，每份评分3次</text>
<rect x="905" y="616" width="245" height="108" rx="8" fill="#eaf0f8" stroke="#c5d0de" stroke-width="1.5"/>
<text x="1027.5" y="653" font-size="25" font-weight="700" fill="#203d63" text-anchor="middle">12 × 3 = 36次</text>
<text x="1027.5" y="693" font-size="22" font-weight="400" fill="#536174" text-anchor="middle">每份材料保持不变</text>
<polyline points="255,670 330,670" fill="none" stroke="#71839b" stroke-width="2" marker-end="url(#arrow)"/>
<polyline points="825,670 900,670" fill="none" stroke="#71839b" stroke-width="2" marker-end="url(#arrow)"/>
<text x="30" y="792" font-size="27" font-weight="700" fill="#203d63" text-anchor="start">共116份不同材料、236次评分。</text>
<text x="30" y="834" font-size="24" font-weight="400" fill="#536174" text-anchor="start">三种质量排序与重复稳定性共用同一批72次评分；人工比较复用已有材料。</text>
</g></svg>
